<svg width="342" height="58" viewBox="0 0 342 58" fill="none" xmlns="http://www.w3.org/2000/svg">
<path d="M3.42578 26.7C3.42578 18.4 6.62578 12.7 12.0758 9.3C15.3758 7.3 21.3258 6.75 25.0758 7.55C28.3258 8.2 31.4758 10 34.8758 13.75L29.4758 19.35C26.2258 15.7 22.1758 14.9 18.7258 16.05C14.5258 17.4 12.1258 21 12.1258 26.7C12.1258 32.45 15.5758 36.6 18.7758 37.4C22.3758 38.25 26.9758 37.4 29.4758 34L34.8758 39.7C31.6258 43.5 28.5258 45.25 25.0758 45.9C21.3258 46.6 15.3758 46.1 12.0758 44.15C6.62578 40.75 3.42578 35.05 3.42578 26.7ZM51.2336 37.95C54.5836 37.95 57.6336 35.8 57.6336 31.4C57.6336 27.2 54.5836 24.85 51.2336 24.85C47.9836 24.85 45.0336 27.2 45.0336 31.4C45.0336 35.8 47.9836 37.95 51.2336 37.95ZM51.3336 45.85C42.5836 45.85 36.3836 40.1 36.3836 31.4C36.3836 22.35 43.1336 16.95 51.3336 16.95C59.5336 16.95 66.2836 22.35 66.2836 31.4C66.2836 40.1 60.0836 45.85 51.3336 45.85ZM69.5566 45.2V17.7H78.0066V19.4C80.2066 17.85 82.2066 17.25 84.6566 17H85.2066C88.6066 17 90.9066 18.2 92.2566 20.15C94.5566 18.4 97.9066 17 99.9066 17H100.757C107.157 17 110.357 20.95 110.357 27.65V45.2H102.057V32.15C102.057 26.65 100.607 25.4 98.2566 25.5C96.5566 25.55 95.6066 26 94.4566 27C94.5066 27.45 94.5066 27.95 94.5066 28.4V45.2H86.2566V32.15C86.2566 27 84.8066 25.4 82.4066 25.5C80.4566 25.55 79.4066 26.2 78.0066 27.35V45.2H69.5566ZM114.43 17.7H123.08V45.2H114.43V17.7ZM123.08 14.8H114.43V8.1H123.08V14.8ZM127.125 45.2V17.7H135.875V19.3C137.125 18.25 139.625 17.25 142.025 17.05H142.825C149.525 17.05 152.625 21.55 152.675 28.4V45.2H143.925V32.15C143.925 26.4 142.525 25.4 140.075 25.5C138.175 25.6 137.325 26.1 135.875 27.2V45.2H127.125ZM170.315 36.45C173.915 36.4 175.865 34.05 175.865 30.95C175.865 26.6 173.315 24.6 170.315 24.45C167.865 24.3 164.965 25.9 164.765 30.5C164.565 34.6 167.215 36.5 170.315 36.45ZM184.765 40.45C184.765 45.6 184.065 49.05 180.065 51.9C176.965 54 172.515 54.45 168.065 54.25C165.015 54.1 161.065 53.2 157.365 51.05L160.965 44.25C164.415 46.2 167.665 47.25 171.515 46.85C174.865 46.45 176.015 44.5 176.015 42.7V41.5C174.715 42.9 171.865 43.85 168.965 43.85C163.065 43.85 155.965 39.9 156.265 30.9C156.615 21 162.565 16.7 169.465 17.05C172.365 17.15 174.565 18.2 176.015 19.65V17.7H184.765V40.45ZM221.595 45.4C218.045 46.4 213.245 46.45 208.795 45.2C206.295 44.35 202.245 42 200.045 39.55L205.945 33.15C210.945 36.65 214.845 38.15 217.695 37.45C220.295 36.8 220.845 33.8 218.595 32.35C216.045 30.6 213.495 30.05 208.995 27.65C202.645 24.1 201.045 18.75 203.245 14.45C205.495 9.7 210.345 7.2 216.045 7.2C221.695 7.2 226.395 9.3 229.645 12.8L223.845 19.25C221.395 17.15 217.745 15.65 215.345 15.65C213.945 15.65 212.595 16.45 212.595 18.1C212.595 19.7 214.545 20.95 219.945 23.6C226.745 26.7 229.295 29.8 229.795 33.55C230.695 38.9 227.845 43.65 221.595 45.4ZM247.523 37.95C250.873 37.95 253.923 35.8 253.923 31.4C253.923 27.2 250.873 24.85 247.523 24.85C244.273 24.85 241.323 27.2 241.323 31.4C241.323 35.8 244.273 37.95 247.523 37.95ZM247.623 45.85C238.873 45.85 232.673 40.1 232.673 31.4C232.673 22.35 239.423 16.95 247.623 16.95C255.823 16.95 262.573 22.35 262.573 31.4C262.573 40.1 256.373 45.85 247.623 45.85ZM279.896 37.95C283.246 37.95 286.296 35.8 286.296 31.4C286.296 27.2 283.246 24.85 279.896 24.85C276.646 24.85 273.696 27.2 273.696 31.4C273.696 35.8 276.646 37.95 279.896 37.95ZM279.996 45.85C271.246 45.85 265.046 40.1 265.046 31.4C265.046 22.35 271.796 16.95 279.996 16.95C288.196 16.95 294.946 22.35 294.946 31.4C294.946 40.1 288.746 45.85 279.996 45.85ZM298.219 45.2V17.7H306.969V19.3C308.219 18.25 310.719 17.25 313.119 17.05H313.919C320.619 17.05 323.719 21.55 323.769 28.4V45.2H315.019V32.15C315.019 26.4 313.619 25.4 311.169 25.5C309.269 25.6 308.419 26.1 306.969 27.2V45.2H298.219ZM329.459 7.2H338.209V31.85H329.459V7.2ZM329.409 36.3H338.159V46.1H329.409V36.3Z" fill="white"/>
<path d="M12.0758 9.3L10.5209 6.73441C10.5098 6.7411 10.4988 6.74786 10.4879 6.75469L12.0758 9.3ZM25.0758 7.55L24.4499 10.484C24.4624 10.4866 24.4749 10.4892 24.4874 10.4917L25.0758 7.55ZM34.8758 13.75L37.0353 15.8324C38.1312 14.6959 38.1587 12.9045 37.0983 11.7349L34.8758 13.75ZM29.4758 19.35L27.2352 21.345C27.7907 21.9688 28.5811 22.3328 29.4162 22.3494C30.2513 22.366 31.0555 22.0337 31.6353 21.4324L29.4758 19.35ZM18.7258 16.05L19.6438 18.9061C19.654 18.9028 19.6643 18.8994 19.6745 18.896L18.7258 16.05ZM18.7758 37.4L18.0482 40.3104C18.0609 40.3136 18.0736 40.3167 18.0864 40.3197L18.7758 37.4ZM29.4758 34L31.6536 31.9368C31.0424 31.2915 30.1765 30.9506 29.2894 31.0058C28.4023 31.061 27.5853 31.5068 27.0588 32.2228L29.4758 34ZM34.8758 39.7L37.1557 41.6499C38.1535 40.4832 38.1095 38.7513 37.0536 37.6368L34.8758 39.7ZM25.0758 45.9L25.6263 48.8491L25.6312 48.8481L25.0758 45.9ZM12.0758 44.15L10.4879 46.6953C10.5083 46.708 10.5289 46.7205 10.5496 46.7328L12.0758 44.15ZM6.42578 26.7C6.42578 19.2821 9.21454 14.6209 13.6637 11.8453L10.4879 6.75469C4.03702 10.7791 0.425781 17.5179 0.425781 26.7H6.42578ZM13.6307 11.8656C14.7767 11.171 16.6224 10.6136 18.7685 10.3531C20.8869 10.096 22.9689 10.168 24.4499 10.484L25.7017 4.61602C23.4327 4.13196 20.6646 4.07897 18.0456 4.39685C15.4542 4.71137 12.6748 5.42899 10.5209 6.73441L13.6307 11.8656ZM24.4874 10.4917C26.9614 10.9865 29.5726 12.3672 32.6533 15.7651L37.0983 11.7349C33.379 7.63277 29.6901 5.41346 25.6641 4.60826L24.4874 10.4917ZM32.7163 11.6676L27.3162 17.2676L31.6353 21.4324L37.0353 15.8324L32.7163 11.6676ZM31.7163 17.355C27.6993 12.8435 22.4075 11.6605 17.7771 13.2039L19.6745 18.896C21.9441 18.1395 24.7523 18.5564 27.2352 21.345L31.7163 17.355ZM17.8078 13.1939C15.0876 14.0682 12.842 15.7229 11.3143 18.1418C9.81105 20.5219 9.12578 23.4431 9.12578 26.7H15.1258C15.1258 24.2569 15.6405 22.5281 16.3872 21.3457C17.1096 20.2021 18.164 19.3818 19.6438 18.9061L17.8078 13.1939ZM9.12578 26.7C9.12578 33.4797 13.2033 39.0992 18.0482 40.3104L19.5034 34.4896C17.9482 34.1008 15.1258 31.4203 15.1258 26.7H9.12578ZM18.0864 40.3197C22.4538 41.3509 28.463 40.4416 31.8927 35.7772L27.0588 32.2228C25.4886 34.3584 22.2977 35.1491 19.4652 34.4803L18.0864 40.3197ZM27.2979 36.0632L32.6979 41.7632L37.0536 37.6368L31.6536 31.9368L27.2979 36.0632ZM32.5959 37.7501C29.7113 41.1229 27.1882 42.4492 24.5203 42.9519L25.6312 48.8481C29.8633 48.0508 33.5403 45.8771 37.1557 41.6499L32.5959 37.7501ZM24.5253 42.9509C23.0038 43.2349 20.8899 43.2925 18.7607 43.0397C16.5971 42.7828 14.7477 42.2442 13.602 41.5672L10.5496 46.7328C12.7039 48.0058 15.4795 48.6922 18.0533 48.9978C20.6617 49.3075 23.3977 49.2651 25.6263 48.8491L24.5253 42.9509ZM13.6637 41.6047C9.21774 38.8311 6.42578 34.1721 6.42578 26.7H0.425781C0.425781 35.9279 4.03382 42.6689 10.4879 46.6953L13.6637 41.6047ZM51.2336 40.95C53.5318 40.95 55.8982 40.2109 57.7218 38.5321C59.5896 36.8125 60.6336 34.3392 60.6336 31.4H54.6336C54.6336 32.8608 54.1526 33.6625 53.6579 34.1179C53.119 34.6141 52.2853 34.95 51.2336 34.95V40.95ZM60.6336 31.4C60.6336 28.5283 59.5688 26.0822 57.7467 24.3661C55.958 22.6815 53.6003 21.85 51.2336 21.85V27.85C52.2169 27.85 53.0592 28.1935 53.633 28.7339C54.1733 29.2428 54.6336 30.0717 54.6336 31.4H60.6336ZM51.2336 21.85C48.8893 21.85 46.5698 22.7005 44.8231 24.3995C43.0499 26.1242 42.0336 28.5606 42.0336 31.4H48.0336C48.0336 30.0394 48.4923 29.2008 49.0066 28.7005C49.5474 28.1745 50.3279 27.85 51.2336 27.85V21.85ZM42.0336 31.4C42.0336 34.3071 43.0299 36.7708 44.8477 38.4991C46.6306 40.1944 48.9596 40.95 51.2336 40.95V34.95C50.2576 34.95 49.4865 34.6306 48.982 34.1509C48.5123 33.7042 48.0336 32.8929 48.0336 31.4H42.0336ZM51.3336 42.85C47.6213 42.85 44.6608 41.6391 42.6494 39.718C40.6518 37.8101 39.3836 35.0075 39.3836 31.4H33.3836C33.3836 36.4925 35.2154 40.9149 38.5053 44.057C41.7814 47.1859 46.2959 48.85 51.3336 48.85V42.85ZM39.3836 31.4C39.3836 27.6695 40.7515 24.8764 42.8085 22.9948C44.8986 21.0829 47.8835 19.95 51.3336 19.95V13.95C46.5837 13.95 42.0936 15.5171 38.7587 18.5677C35.3907 21.6485 33.3836 26.0805 33.3836 31.4H39.3836ZM51.3336 19.95C54.7837 19.95 57.7686 21.0829 59.8587 22.9948C61.9157 24.8764 63.2836 27.6695 63.2836 31.4H69.2836C69.2836 26.0805 67.2765 21.6485 63.9085 18.5677C60.5736 15.5171 56.0835 13.95 51.3336 13.95V19.95ZM63.2836 31.4C63.2836 35.0075 62.0154 37.8101 60.0178 39.718C58.0064 41.6391 55.0459 42.85 51.3336 42.85V48.85C56.3713 48.85 60.8858 47.1859 64.1619 44.057C67.4518 40.9149 69.2836 36.4925 69.2836 31.4H63.2836ZM69.5566 45.2H66.5566C66.5566 46.8569 67.8998 48.2 69.5566 48.2V45.2ZM69.5566 17.7V14.7C67.8998 14.7 66.5566 16.0431 66.5566 17.7H69.5566ZM78.0066 17.7H81.0066C81.0066 16.0431 79.6635 14.7 78.0066 14.7V17.7ZM78.0066 19.4H75.0066C75.0066 20.5203 75.6308 21.5472 76.6253 22.063C77.6197 22.5789 78.8187 22.4977 79.7345 21.8524L78.0066 19.4ZM84.6566 17V14C84.5549 14 84.4533 14.0052 84.3521 14.0155L84.6566 17ZM92.2566 20.15L89.7901 21.8576C90.2562 22.531 90.9775 22.9845 91.7863 23.1129C92.5952 23.2413 93.4214 23.0334 94.0732 22.5375L92.2566 20.15ZM110.357 45.2V48.2C112.013 48.2 113.357 46.8569 113.357 45.2H110.357ZM102.057 45.2H99.0566C99.0566 46.8569 100.4 48.2 102.057 48.2V45.2ZM98.2566 25.5L98.3448 28.4987C98.358 28.4983 98.3711 28.4978 98.3842 28.4973L98.2566 25.5ZM94.4566 27L92.4881 24.7362C91.7449 25.3825 91.3662 26.3524 91.475 27.3313L94.4566 27ZM94.5066 45.2V48.2C96.1635 48.2 97.5066 46.8569 97.5066 45.2H94.5066ZM86.2566 45.2H83.2566C83.2566 46.8569 84.5998 48.2 86.2566 48.2V45.2ZM82.4066 25.5L82.4835 28.499C82.4995 28.4986 82.5155 28.4981 82.5315 28.4974L82.4066 25.5ZM78.0066 27.35L76.1024 25.0318C75.4087 25.6017 75.0066 26.4522 75.0066 27.35H78.0066ZM78.0066 45.2V48.2C79.6635 48.2 81.0066 46.8569 81.0066 45.2H78.0066ZM72.5566 45.2V17.7H66.5566V45.2H72.5566ZM69.5566 20.7H78.0066V14.7H69.5566V20.7ZM75.0066 17.7V19.4H81.0066V17.7H75.0066ZM79.7345 21.8524C81.4365 20.6533 82.9207 20.1927 84.9612 19.9845L84.3521 14.0155C81.4926 14.3073 78.9768 15.0467 76.2788 16.9475L79.7345 21.8524ZM84.6566 20H85.2066V14H84.6566V20ZM85.2066 20C87.8447 20 89.1162 20.8842 89.7901 21.8576L94.7232 18.4424C92.6971 15.5158 89.3686 14 85.2066 14V20ZM94.0732 22.5375C94.9938 21.8371 96.1756 21.1729 97.3408 20.691C98.5645 20.1848 99.4784 20 99.9066 20V14C98.3349 14 96.5738 14.5152 95.0475 15.1465C93.4627 15.8021 91.8195 16.7129 90.4401 17.7625L94.0732 22.5375ZM99.9066 20H100.757V14H99.9066V20ZM100.757 20C103.317 20 104.804 20.7667 105.701 21.7902C106.656 22.8798 107.357 24.7307 107.357 27.65H113.357C113.357 23.8693 112.457 20.3952 110.212 17.8348C107.91 15.2083 104.596 14 100.757 14V20ZM107.357 27.65V45.2H113.357V27.65H107.357ZM110.357 42.2H102.057V48.2H110.357V42.2ZM105.057 45.2V32.15H99.0566V45.2H105.057ZM105.057 32.15C105.057 29.3036 104.715 26.8373 103.536 25.0645C102.888 24.089 102.018 23.3683 100.969 22.9432C99.9716 22.539 98.9744 22.4667 98.1291 22.5027L98.3842 28.4973C98.7139 28.4833 98.7791 28.5298 98.7148 28.5037C98.5989 28.4567 98.5314 28.3735 98.5393 28.3854C98.5787 28.4448 98.7229 28.7022 98.8484 29.3485C98.9725 29.9876 99.0566 30.892 99.0566 32.15H105.057ZM98.1684 22.5013C97.0627 22.5338 96.0241 22.7026 95.0111 23.1185C94.0063 23.531 93.202 24.1154 92.4881 24.7362L96.4252 29.2638C96.8612 28.8846 97.107 28.744 97.2897 28.669C97.4642 28.5973 97.7506 28.5162 98.3448 28.4987L98.1684 22.5013ZM91.475 27.3313C91.5033 27.586 91.5066 27.914 91.5066 28.4H97.5066C97.5066 27.986 97.51 27.314 97.4383 26.6687L91.475 27.3313ZM91.5066 28.4V45.2H97.5066V28.4H91.5066ZM94.5066 42.2H86.2566V48.2H94.5066V42.2ZM89.2566 45.2V32.15H83.2566V45.2H89.2566ZM89.2566 32.15C89.2566 29.4286 88.8993 27.015 87.7557 25.2348C87.1403 24.2768 86.3073 23.5193 85.2679 23.0442C84.257 22.5821 83.2194 22.4635 82.2817 22.5026L82.5315 28.4974C82.7939 28.4865 82.8375 28.5304 82.7735 28.5011C82.681 28.4588 82.6605 28.4044 82.7076 28.4777C82.889 28.76 83.2566 29.7214 83.2566 32.15H89.2566ZM82.3297 22.501C81.0055 22.5349 79.8477 22.782 78.7496 23.2857C77.7042 23.7652 76.8485 24.419 76.1024 25.0318L79.9109 29.6682C80.5648 29.131 80.9341 28.8848 81.2512 28.7393C81.5155 28.618 81.8578 28.5151 82.4835 28.499L82.3297 22.501ZM75.0066 27.35V45.2H81.0066V27.35H75.0066ZM78.0066 42.2H69.5566V48.2H78.0066V42.2ZM114.43 17.7V14.7C112.773 14.7 111.43 16.0431 111.43 17.7H114.43ZM123.08 17.7H126.08C126.08 16.0431 124.737 14.7 123.08 14.7V17.7ZM123.08 45.2V48.2C124.737 48.2 126.08 46.8569 126.08 45.2H123.08ZM114.43 45.2H111.43C111.43 46.8569 112.773 48.2 114.43 48.2V45.2ZM123.08 14.8V17.8C124.737 17.8 126.08 16.4569 126.08 14.8H123.08ZM114.43 14.8H111.43C111.43 16.4569 112.773 17.8 114.43 17.8V14.8ZM114.43 8.1V5.1C112.773 5.1 111.43 6.44314 111.43 8.1H114.43ZM123.08 8.1H126.08C126.08 6.44314 124.737 5.1 123.08 5.1V8.1ZM114.43 20.7H123.08V14.7H114.43V20.7ZM120.08 17.7V45.2H126.08V17.7H120.08ZM123.08 42.2H114.43V48.2H123.08V42.2ZM117.43 45.2V17.7H111.43V45.2H117.43ZM123.08 11.8H114.43V17.8H123.08V11.8ZM117.43 14.8V8.1H111.43V14.8H117.43ZM114.43 11.1H123.08V5.1H114.43V11.1ZM120.08 8.1V14.8H126.08V8.1H120.08ZM127.125 45.2H124.125C124.125 46.8569 125.468 48.2 127.125 48.2V45.2ZM127.125 17.7V14.7C125.468 14.7 124.125 16.0431 124.125 17.7H127.125ZM135.875 17.7H138.875C138.875 16.0431 137.532 14.7 135.875 14.7V17.7ZM135.875 19.3H132.875C132.875 20.4662 133.551 21.5267 134.608 22.0193C135.665 22.5118 136.912 22.3472 137.805 21.5971L135.875 19.3ZM142.025 17.05V14.05C141.942 14.05 141.859 14.0535 141.776 14.0604L142.025 17.05ZM152.675 28.4H155.675C155.675 28.3927 155.675 28.3854 155.675 28.3781L152.675 28.4ZM152.675 45.2V48.2C154.332 48.2 155.675 46.8569 155.675 45.2H152.675ZM143.925 45.2H140.925C140.925 46.8569 142.268 48.2 143.925 48.2V45.2ZM140.075 25.5L139.953 22.5025C139.941 22.503 139.929 22.5035 139.917 22.5041L140.075 25.5ZM135.875 27.2L134.062 24.8099C133.314 25.3771 132.875 26.2615 132.875 27.2H135.875ZM135.875 45.2V48.2C137.532 48.2 138.875 46.8569 138.875 45.2H135.875ZM130.125 45.2V17.7H124.125V45.2H130.125ZM127.125 20.7H135.875V14.7H127.125V20.7ZM132.875 17.7V19.3H138.875V17.7H132.875ZM137.805 21.5971C138.483 21.027 140.354 20.1996 142.274 20.0396L141.776 14.0604C138.896 14.3004 135.767 15.473 133.945 17.0029L137.805 21.5971ZM142.025 20.05H142.825V14.05H142.025V20.05ZM142.825 20.05C145.449 20.05 146.973 20.895 147.921 22.0544C148.951 23.3161 149.653 25.3879 149.675 28.4219L155.675 28.3781C155.647 24.5621 154.774 20.9589 152.567 18.2581C150.277 15.455 146.901 14.05 142.825 14.05V20.05ZM149.675 28.4V45.2H155.675V28.4H149.675ZM152.675 42.2H143.925V48.2H152.675V42.2ZM146.925 45.2V32.15H140.925V45.2H146.925ZM146.925 32.15C146.925 29.237 146.612 26.7117 145.392 24.9337C143.872 22.7185 141.592 22.4356 139.953 22.5025L140.197 28.4975C140.629 28.4799 140.741 28.5279 140.703 28.5142C140.67 28.5024 140.609 28.4743 140.543 28.4238C140.513 28.4004 140.488 28.3775 140.47 28.3584C140.453 28.3395 140.445 28.3281 140.445 28.3288C140.456 28.3442 140.595 28.5644 140.72 29.226C140.842 29.8778 140.925 30.8166 140.925 32.15H146.925ZM139.917 22.5041C138.71 22.5677 137.65 22.7707 136.608 23.2247C135.623 23.654 134.804 24.247 134.062 24.8099L137.688 29.5901C138.396 29.053 138.727 28.846 139.004 28.7253C139.225 28.6293 139.54 28.5323 140.233 28.4959L139.917 22.5041ZM132.875 27.2V45.2H138.875V27.2H132.875ZM135.875 42.2H127.125V48.2H135.875V42.2ZM170.315 36.45L170.273 33.4503L170.266 33.4504L170.315 36.45ZM170.315 24.45L170.132 27.4444C170.143 27.4451 170.154 27.4457 170.165 27.4463L170.315 24.45ZM164.765 30.5L167.761 30.6462C167.762 30.6409 167.762 30.6356 167.762 30.6303L164.765 30.5ZM180.065 51.9L181.747 54.3838C181.767 54.3705 181.786 54.357 181.806 54.3433L180.065 51.9ZM168.065 54.25L167.917 57.2464L167.93 57.247L168.065 54.25ZM157.365 51.05L154.713 49.6463C153.96 51.0699 154.465 52.8346 155.858 53.6439L157.365 51.05ZM160.965 44.25L162.441 41.6383C161.736 41.2398 160.9 41.1433 160.122 41.3708C159.345 41.5983 158.692 42.1305 158.313 42.8463L160.965 44.25ZM171.515 46.85L171.825 49.8339C171.84 49.8324 171.855 49.8307 171.871 49.8288L171.515 46.85ZM176.015 41.5H179.015C179.015 40.2664 178.26 39.1585 177.111 38.7076C175.963 38.2567 174.656 38.5547 173.816 39.4586L176.015 41.5ZM156.265 30.9L153.267 30.794L153.267 30.8001L156.265 30.9ZM169.465 17.05L169.313 20.0461C169.329 20.047 169.345 20.0477 169.361 20.0482L169.465 17.05ZM176.015 19.65L173.894 21.7713C174.752 22.6293 176.042 22.886 177.163 22.4216C178.284 21.9573 179.015 20.8634 179.015 19.65H176.015ZM176.015 17.7V14.7C174.358 14.7 173.015 16.0431 173.015 17.7H176.015ZM184.765 17.7H187.765C187.765 16.0431 186.422 14.7 184.765 14.7V17.7ZM170.357 39.4497C172.825 39.4154 175.028 38.5711 176.609 36.9162C178.172 35.2801 178.865 33.127 178.865 30.95H172.865C172.865 31.873 172.583 32.4449 172.271 32.7713C171.977 33.0789 171.405 33.4346 170.273 33.4503L170.357 39.4497ZM178.865 30.95C178.865 28.1758 178.038 25.7887 176.387 24.0554C174.749 22.3365 172.583 21.5596 170.465 21.4537L170.165 27.4463C171.047 27.4904 171.656 27.7885 172.043 28.1946C172.416 28.5863 172.865 29.3742 172.865 30.95H178.865ZM170.498 21.4556C168.574 21.3378 166.412 21.9039 164.683 23.4698C162.919 25.0665 161.895 27.4344 161.768 30.3697L167.762 30.6303C167.834 28.9656 168.361 28.2335 168.71 27.9177C169.092 27.5711 169.606 27.4122 170.132 27.4444L170.498 21.4556ZM161.768 30.3538C161.634 33.104 162.463 35.5086 164.228 37.1983C165.946 38.8431 168.211 39.4843 170.363 39.4496L170.266 33.4504C169.318 33.4657 168.709 33.1819 168.377 32.8642C168.092 32.5914 167.695 31.996 167.761 30.6462L161.768 30.3538ZM181.765 40.45C181.765 42.9457 181.584 44.6629 181.094 46.0153C180.645 47.2551 179.874 48.3525 178.324 49.4567L181.806 54.3433C184.256 52.5975 185.835 50.5449 186.735 48.0597C187.595 45.6871 187.765 43.1043 187.765 40.45H181.765ZM178.382 49.4162C176.129 50.9429 172.525 51.4474 168.2 51.253L167.93 57.247C172.505 57.4526 177.801 57.0571 181.747 54.3838L178.382 49.4162ZM168.212 51.2536C165.578 51.1241 162.106 50.3354 158.872 48.4561L155.858 53.6439C160.024 56.0646 164.452 57.0759 167.917 57.2464L168.212 51.2536ZM160.016 52.4537L163.616 45.6537L158.313 42.8463L154.713 49.6463L160.016 52.4537ZM159.489 46.8617C163.271 48.9994 167.152 50.3194 171.825 49.8339L171.205 43.8661C168.178 44.1806 165.559 43.4006 162.441 41.6383L159.489 46.8617ZM171.871 49.8288C174.08 49.5651 175.925 48.7386 177.222 47.3386C178.516 45.9421 179.015 44.2402 179.015 42.7H173.015C173.015 42.9598 172.939 43.1329 172.82 43.2614C172.704 43.3864 172.3 43.7349 171.159 43.8712L171.871 49.8288ZM179.015 42.7V41.5H173.015V42.7H179.015ZM173.816 39.4586C173.632 39.657 173.109 40.0313 172.141 40.354C171.22 40.6611 170.103 40.85 168.965 40.85V46.85C170.726 46.85 172.485 46.5639 174.039 46.046C175.545 45.5437 177.097 44.743 178.213 43.5414L173.816 39.4586ZM168.965 40.85C166.627 40.85 164.097 40.0553 162.237 38.4682C160.467 36.9573 159.143 34.6013 159.263 30.9999L153.267 30.8001C153.087 36.1987 155.162 40.3177 158.342 43.0318C161.433 45.6697 165.402 46.85 168.965 46.85V40.85ZM159.263 31.006C159.417 26.6431 160.78 23.913 162.472 22.3087C164.168 20.7013 166.53 19.905 169.313 20.0461L169.617 14.0539C165.5 13.845 161.436 15.0237 158.345 17.9538C155.25 20.887 153.462 25.2569 153.267 30.794L159.263 31.006ZM169.361 20.0482C171.567 20.1243 173.025 20.9026 173.894 21.7713L178.136 17.5287C176.105 15.4974 173.163 14.1757 169.568 14.0518L169.361 20.0482ZM179.015 19.65V17.7H173.015V19.65H179.015ZM176.015 20.7H184.765V14.7H176.015V20.7ZM181.765 17.7V40.45H187.765V17.7H181.765ZM221.595 45.4L220.786 42.5111L220.782 42.5124L221.595 45.4ZM208.795 45.2L207.829 48.0403C207.88 48.0577 207.932 48.0736 207.984 48.0882L208.795 45.2ZM200.045 39.55L197.839 37.5166C196.79 38.6543 196.779 40.4031 197.813 41.5544L200.045 39.55ZM205.945 33.15L207.665 30.6923C206.435 29.831 204.757 30.0123 203.739 31.1166L205.945 33.15ZM217.695 37.45L218.411 40.3634L218.423 40.3604L217.695 37.45ZM218.595 32.35L216.897 34.8235C216.921 34.8399 216.945 34.856 216.97 34.8717L218.595 32.35ZM208.995 27.65L207.531 30.2686C207.548 30.2782 207.566 30.2877 207.583 30.2971L208.995 27.65ZM203.245 14.45L205.916 15.8164C205.93 15.7892 205.943 15.7619 205.956 15.7343L203.245 14.45ZM229.645 12.8L231.876 14.8059C232.914 13.6517 232.9 11.8962 231.843 10.7586L229.645 12.8ZM223.845 19.25L221.893 21.5278C223.129 22.588 224.986 22.4673 226.076 21.2559L223.845 19.25ZM219.945 23.6L218.623 26.2932C218.649 26.3057 218.675 26.3179 218.7 26.3297L219.945 23.6ZM229.795 33.55L226.821 33.9465C226.826 33.9803 226.831 34.014 226.836 34.0477L229.795 33.55ZM220.782 42.5124C217.798 43.3529 213.561 43.4227 209.606 42.3118L207.984 48.0882C212.929 49.4773 218.292 49.4471 222.408 48.2876L220.782 42.5124ZM209.761 42.3597C207.646 41.6406 204.068 39.5403 202.277 37.5456L197.813 41.5544C200.422 44.4597 204.944 47.0594 207.829 48.0403L209.761 42.3597ZM202.251 41.5834L208.151 35.1834L203.739 31.1166L197.839 37.5166L202.251 41.5834ZM204.225 35.6077C206.837 37.4367 209.297 38.8406 211.584 39.688C213.858 40.5308 216.192 40.9083 218.41 40.3634L216.979 34.5366C216.348 34.6917 215.307 34.6692 213.669 34.062C212.043 33.4594 210.052 32.3633 207.665 30.6923L204.225 35.6077ZM218.423 40.3604C220.79 39.7686 222.513 37.9819 222.917 35.7286C223.323 33.4568 222.303 31.1709 220.22 29.8283L216.97 34.8717C217.081 34.9432 217.066 34.9701 217.036 34.9044C217.009 34.8437 216.995 34.759 217.011 34.6714C217.026 34.5849 217.064 34.5262 217.092 34.498C217.123 34.466 217.106 34.5049 216.967 34.5396L218.423 40.3604ZM220.292 29.8765C218.753 28.8202 217.237 28.1469 215.716 27.4898C214.179 26.8255 212.53 26.1353 210.407 25.0029L207.583 30.2971C209.96 31.5647 211.836 32.3495 213.336 32.9977C214.853 33.6531 215.887 34.1298 216.897 34.8235L220.292 29.8765ZM210.459 25.0314C207.74 23.5112 206.311 21.7621 205.703 20.2262C205.108 18.7258 205.201 17.2133 205.916 15.8164L200.574 13.0836C199.089 15.9867 198.882 19.2992 200.125 22.4363C201.354 25.5379 203.9 28.2388 207.531 30.2686L210.459 25.0314ZM205.956 15.7343C207.595 12.2745 211.209 10.2 216.045 10.2V4.2C209.48 4.2 203.395 7.12549 200.534 13.1657L205.956 15.7343ZM216.045 10.2C220.918 10.2 224.802 11.9934 227.447 14.8414L231.843 10.7586C227.988 6.60661 222.472 4.2 216.045 4.2V10.2ZM227.414 10.7941L221.614 17.2441L226.076 21.2559L231.876 14.8059L227.414 10.7941ZM225.797 16.9722C224.302 15.6909 222.5 14.6364 220.737 13.8963C219.009 13.1707 217.085 12.65 215.345 12.65V18.65C216.005 18.65 217.106 18.8793 218.415 19.4287C219.689 19.9636 220.937 20.7091 221.893 21.5278L225.797 16.9722ZM215.345 12.65C214.115 12.65 212.729 12.9959 211.581 13.9053C210.351 14.8804 209.595 16.3587 209.595 18.1H215.595C215.595 18.0991 215.595 18.1234 215.585 18.1671C215.576 18.2112 215.558 18.2664 215.529 18.3269C215.467 18.4547 215.381 18.5494 215.309 18.6072C215.242 18.6603 215.202 18.6695 215.217 18.665C215.232 18.6604 215.276 18.65 215.345 18.65V12.65ZM209.595 18.1C209.595 20.3912 211.105 21.8844 212.483 22.8842C213.887 23.9035 215.957 24.9847 218.623 26.2932L221.267 20.9068C218.533 19.5653 216.928 18.6965 216.007 18.0283C215.06 17.3406 215.595 17.4088 215.595 18.1H209.595ZM218.7 26.3297C225.123 29.2578 226.523 31.7107 226.821 33.9465L232.769 33.1535C232.067 27.8893 228.367 24.1422 221.189 20.8703L218.7 26.3297ZM226.836 34.0477C227.173 36.0492 226.795 37.7865 225.879 39.1626C224.959 40.5445 223.339 41.7964 220.786 42.5111L222.404 48.2889C226.101 47.2536 229.031 45.2555 230.873 42.4874C232.72 39.7135 233.317 36.4008 232.753 33.0523L226.836 34.0477ZM247.523 40.95C249.821 40.95 252.187 40.2109 254.011 38.5321C255.879 36.8125 256.923 34.3392 256.923 31.4H250.923C250.923 32.8608 250.442 33.6625 249.947 34.1179C249.408 34.6141 248.574 34.95 247.523 34.95V40.95ZM256.923 31.4C256.923 28.5283 255.858 26.0822 254.036 24.3661C252.247 22.6815 249.889 21.85 247.523 21.85V27.85C248.506 27.85 249.348 28.1935 249.922 28.7339C250.462 29.2428 250.923 30.0717 250.923 31.4H256.923ZM247.523 21.85C245.178 21.85 242.859 22.7005 241.112 24.3995C239.339 26.1242 238.323 28.5606 238.323 31.4H244.323C244.323 30.0394 244.781 29.2008 245.296 28.7005C245.836 28.1745 246.617 27.85 247.523 27.85V21.85ZM238.323 31.4C238.323 34.3071 239.319 36.7708 241.137 38.4991C242.92 40.1944 245.249 40.95 247.523 40.95V34.95C246.547 34.95 245.776 34.6306 245.271 34.1509C244.801 33.7042 244.323 32.8929 244.323 31.4H238.323ZM247.623 42.85C243.91 42.85 240.95 41.6391 238.938 39.718C236.941 37.8101 235.673 35.0075 235.673 31.4H229.673C229.673 36.4925 231.504 40.9149 234.794 44.057C238.07 47.1859 242.585 48.85 247.623 48.85V42.85ZM235.673 31.4C235.673 27.6695 237.041 24.8764 239.098 22.9948C241.188 21.0829 244.173 19.95 247.623 19.95V13.95C242.873 13.95 238.383 15.5171 235.048 18.5677C231.68 21.6485 229.673 26.0805 229.673 31.4H235.673ZM247.623 19.95C251.073 19.95 254.058 21.0829 256.148 22.9948C258.205 24.8764 259.573 27.6695 259.573 31.4H265.573C265.573 26.0805 263.566 21.6485 260.198 18.5677C256.863 15.5171 252.373 13.95 247.623 13.95V19.95ZM259.573 31.4C259.573 35.0075 258.304 37.8101 256.307 39.718C254.295 41.6391 251.335 42.85 247.623 42.85V48.85C252.66 48.85 257.175 47.1859 260.451 44.057C263.741 40.9149 265.573 36.4925 265.573 31.4H259.573ZM279.896 40.95C282.194 40.95 284.56 40.2109 286.384 38.5321C288.252 36.8125 289.296 34.3392 289.296 31.4H283.296C283.296 32.8608 282.815 33.6625 282.32 34.1179C281.781 34.6141 280.947 34.95 279.896 34.95V40.95ZM289.296 31.4C289.296 28.5283 288.231 26.0822 286.409 24.3661C284.62 22.6815 282.262 21.85 279.896 21.85V27.85C280.879 27.85 281.721 28.1935 282.295 28.7339C282.835 29.2428 283.296 30.0717 283.296 31.4H289.296ZM279.896 21.85C277.551 21.85 275.232 22.7005 273.485 24.3995C271.712 26.1242 270.696 28.5606 270.696 31.4H276.696C276.696 30.0394 277.154 29.2008 277.669 28.7005C278.209 28.1745 278.99 27.85 279.896 27.85V21.85ZM270.696 31.4C270.696 34.3071 271.692 36.7708 273.51 38.4991C275.293 40.1944 277.622 40.95 279.896 40.95V34.95C278.92 34.95 278.149 34.6306 277.644 34.1509C277.174 33.7042 276.696 32.8929 276.696 31.4H270.696ZM279.996 42.85C276.283 42.85 273.323 41.6391 271.311 39.718C269.314 37.8101 268.046 35.0075 268.046 31.4H262.046C262.046 36.4925 263.878 40.9149 267.167 44.057C270.444 47.1859 274.958 48.85 279.996 48.85V42.85ZM268.046 31.4C268.046 27.6695 269.414 24.8764 271.471 22.9948C273.561 21.0829 276.546 19.95 279.996 19.95V13.95C275.246 13.95 270.756 15.5171 267.421 18.5677C264.053 21.6485 262.046 26.0805 262.046 31.4H268.046ZM279.996 19.95C283.446 19.95 286.431 21.0829 288.521 22.9948C290.578 24.8764 291.946 27.6695 291.946 31.4H297.946C297.946 26.0805 295.939 21.6485 292.571 18.5677C289.236 15.5171 284.746 13.95 279.996 13.95V19.95ZM291.946 31.4C291.946 35.0075 290.678 37.8101 288.68 39.718C286.669 41.6391 283.708 42.85 279.996 42.85V48.85C285.033 48.85 289.548 47.1859 292.824 44.057C296.114 40.9149 297.946 36.4925 297.946 31.4H291.946ZM298.219 45.2H295.219C295.219 46.8569 296.562 48.2 298.219 48.2V45.2ZM298.219 17.7V14.7C296.562 14.7 295.219 16.0431 295.219 17.7H298.219ZM306.969 17.7H309.969C309.969 16.0431 308.626 14.7 306.969 14.7V17.7ZM306.969 19.3H303.969C303.969 20.4662 304.645 21.5267 305.702 22.0193C306.759 22.5118 308.005 22.3472 308.898 21.5971L306.969 19.3ZM313.119 17.05V14.05C313.036 14.05 312.952 14.0535 312.87 14.0604L313.119 17.05ZM323.769 28.4H326.769C326.769 28.3927 326.769 28.3854 326.769 28.3781L323.769 28.4ZM323.769 45.2V48.2C325.426 48.2 326.769 46.8569 326.769 45.2H323.769ZM315.019 45.2H312.019C312.019 46.8569 313.362 48.2 315.019 48.2V45.2ZM311.169 25.5L311.046 22.5025C311.035 22.503 311.023 22.5035 311.011 22.5041L311.169 25.5ZM306.969 27.2L305.156 24.8099C304.408 25.3771 303.969 26.2615 303.969 27.2H306.969ZM306.969 45.2V48.2C308.626 48.2 309.969 46.8569 309.969 45.2H306.969ZM301.219 45.2V17.7H295.219V45.2H301.219ZM298.219 20.7H306.969V14.7H298.219V20.7ZM303.969 17.7V19.3H309.969V17.7H303.969ZM308.898 21.5971C309.577 21.027 311.448 20.1996 313.368 20.0396L312.87 14.0604C309.99 14.3004 306.86 15.473 305.039 17.0029L308.898 21.5971ZM313.119 20.05H313.919V14.05H313.119V20.05ZM313.919 20.05C316.542 20.05 318.067 20.895 319.014 22.0544C320.045 23.3161 320.747 25.3879 320.769 28.4219L326.769 28.3781C326.741 24.5621 325.867 20.9589 323.661 18.2581C321.37 15.455 317.995 14.05 313.919 14.05V20.05ZM320.769 28.4V45.2H326.769V28.4H320.769ZM323.769 42.2H315.019V48.2H323.769V42.2ZM318.019 45.2V32.15H312.019V45.2H318.019ZM318.019 32.15C318.019 29.237 317.706 26.7117 316.486 24.9337C314.966 22.7185 312.686 22.4356 311.046 22.5025L311.291 28.4975C311.723 28.4799 311.835 28.5279 311.797 28.5142C311.764 28.5024 311.703 28.4743 311.637 28.4238C311.606 28.4004 311.582 28.3775 311.564 28.3584C311.546 28.3395 311.538 28.3281 311.539 28.3288C311.55 28.3442 311.689 28.5644 311.813 29.226C311.936 29.8778 312.019 30.8166 312.019 32.15H318.019ZM311.011 22.5041C309.803 22.5677 308.744 22.7707 307.702 23.2247C306.716 23.654 305.898 24.247 305.156 24.8099L308.782 29.5901C309.49 29.053 309.821 28.846 310.098 28.7253C310.319 28.6293 310.634 28.5323 311.326 28.4959L311.011 22.5041ZM303.969 27.2V45.2H309.969V27.2H303.969ZM306.969 42.2H298.219V48.2H306.969V42.2ZM329.459 7.2V4.2C327.802 4.2 326.459 5.54314 326.459 7.2H329.459ZM338.209 7.2H341.209C341.209 5.54314 339.865 4.2 338.209 4.2V7.2ZM338.209 31.85V34.85C339.865 34.85 341.209 33.5069 341.209 31.85H338.209ZM329.459 31.85H326.459C326.459 33.5069 327.802 34.85 329.459 34.85V31.85ZM329.409 36.3V33.3C327.752 33.3 326.409 34.6431 326.409 36.3H329.409ZM338.159 36.3H341.159C341.159 34.6431 339.815 33.3 338.159 33.3V36.3ZM338.159 46.1V49.1C339.815 49.1 341.159 47.7569 341.159 46.1H338.159ZM329.409 46.1H326.409C326.409 47.7569 327.752 49.1 329.409 49.1V46.1ZM329.459 10.2H338.209V4.2H329.459V10.2ZM335.209 7.2V31.85H341.209V7.2H335.209ZM338.209 28.85H329.459V34.85H338.209V28.85ZM332.459 31.85V7.2H326.459V31.85H332.459ZM329.409 39.3H338.159V33.3H329.409V39.3ZM335.159 36.3V46.1H341.159V36.3H335.159ZM338.159 43.1H329.409V49.1H338.159V43.1ZM332.409 46.1V36.3H326.409V46.1H332.409Z" fill="#3E3E3F"/>
<g filter="url(#filter0_ii_1908_6432)">
<path d="M3.42578 26.7C3.42578 18.4 6.62578 12.7 12.0758 9.3C15.3758 7.3 21.3258 6.75 25.0758 7.55C28.3258 8.2 31.4758 10 34.8758 13.75L29.4758 19.35C26.2258 15.7 22.1758 14.9 18.7258 16.05C14.5258 17.4 12.1258 21 12.1258 26.7C12.1258 32.45 15.5758 36.6 18.7758 37.4C22.3758 38.25 26.9758 37.4 29.4758 34L34.8758 39.7C31.6258 43.5 28.5258 45.25 25.0758 45.9C21.3258 46.6 15.3758 46.1 12.0758 44.15C6.62578 40.75 3.42578 35.05 3.42578 26.7ZM51.2336 37.95C54.5836 37.95 57.6336 35.8 57.6336 31.4C57.6336 27.2 54.5836 24.85 51.2336 24.85C47.9836 24.85 45.0336 27.2 45.0336 31.4C45.0336 35.8 47.9836 37.95 51.2336 37.95ZM51.3336 45.85C42.5836 45.85 36.3836 40.1 36.3836 31.4C36.3836 22.35 43.1336 16.95 51.3336 16.95C59.5336 16.95 66.2836 22.35 66.2836 31.4C66.2836 40.1 60.0836 45.85 51.3336 45.85ZM69.5566 45.2V17.7H78.0066V19.4C80.2066 17.85 82.2066 17.25 84.6566 17H85.2066C88.6066 17 90.9066 18.2 92.2566 20.15C94.5566 18.4 97.9066 17 99.9066 17H100.757C107.157 17 110.357 20.95 110.357 27.65V45.2H102.057V32.15C102.057 26.65 100.607 25.4 98.2566 25.5C96.5566 25.55 95.6066 26 94.4566 27C94.5066 27.45 94.5066 27.95 94.5066 28.4V45.2H86.2566V32.15C86.2566 27 84.8066 25.4 82.4066 25.5C80.4566 25.55 79.4066 26.2 78.0066 27.35V45.2H69.5566ZM114.43 17.7H123.08V45.2H114.43V17.7ZM123.08 14.8H114.43V8.1H123.08V14.8ZM127.125 45.2V17.7H135.875V19.3C137.125 18.25 139.625 17.25 142.025 17.05H142.825C149.525 17.05 152.625 21.55 152.675 28.4V45.2H143.925V32.15C143.925 26.4 142.525 25.4 140.075 25.5C138.175 25.6 137.325 26.1 135.875 27.2V45.2H127.125ZM170.315 36.45C173.915 36.4 175.865 34.05 175.865 30.95C175.865 26.6 173.315 24.6 170.315 24.45C167.865 24.3 164.965 25.9 164.765 30.5C164.565 34.6 167.215 36.5 170.315 36.45ZM184.765 40.45C184.765 45.6 184.065 49.05 180.065 51.9C176.965 54 172.515 54.45 168.065 54.25C165.015 54.1 161.065 53.2 157.365 51.05L160.965 44.25C164.415 46.2 167.665 47.25 171.515 46.85C174.865 46.45 176.015 44.5 176.015 42.7V41.5C174.715 42.9 171.865 43.85 168.965 43.85C163.065 43.85 155.965 39.9 156.265 30.9C156.615 21 162.565 16.7 169.465 17.05C172.365 17.15 174.565 18.2 176.015 19.65V17.7H184.765V40.45ZM221.595 45.4C218.045 46.4 213.245 46.45 208.795 45.2C206.295 44.35 202.245 42 200.045 39.55L205.945 33.15C210.945 36.65 214.845 38.15 217.695 37.45C220.295 36.8 220.845 33.8 218.595 32.35C216.045 30.6 213.495 30.05 208.995 27.65C202.645 24.1 201.045 18.75 203.245 14.45C205.495 9.7 210.345 7.2 216.045 7.2C221.695 7.2 226.395 9.3 229.645 12.8L223.845 19.25C221.395 17.15 217.745 15.65 215.345 15.65C213.945 15.65 212.595 16.45 212.595 18.1C212.595 19.7 214.545 20.95 219.945 23.6C226.745 26.7 229.295 29.8 229.795 33.55C230.695 38.9 227.845 43.65 221.595 45.4ZM247.523 37.95C250.873 37.95 253.923 35.8 253.923 31.4C253.923 27.2 250.873 24.85 247.523 24.85C244.273 24.85 241.323 27.2 241.323 31.4C241.323 35.8 244.273 37.95 247.523 37.95ZM247.623 45.85C238.873 45.85 232.673 40.1 232.673 31.4C232.673 22.35 239.423 16.95 247.623 16.95C255.823 16.95 262.573 22.35 262.573 31.4C262.573 40.1 256.373 45.85 247.623 45.85ZM279.896 37.95C283.246 37.95 286.296 35.8 286.296 31.4C286.296 27.2 283.246 24.85 279.896 24.85C276.646 24.85 273.696 27.2 273.696 31.4C273.696 35.8 276.646 37.95 279.896 37.95ZM279.996 45.85C271.246 45.85 265.046 40.1 265.046 31.4C265.046 22.35 271.796 16.95 279.996 16.95C288.196 16.95 294.946 22.35 294.946 31.4C294.946 40.1 288.746 45.85 279.996 45.85ZM298.219 45.2V17.7H306.969V19.3C308.219 18.25 310.719 17.25 313.119 17.05H313.919C320.619 17.05 323.719 21.55 323.769 28.4V45.2H315.019V32.15C315.019 26.4 313.619 25.4 311.169 25.5C309.269 25.6 308.419 26.1 306.969 27.2V45.2H298.219ZM329.459 7.2H338.209V31.85H329.459V7.2ZM329.409 36.3H338.159V46.1H329.409V36.3Z" fill="white"/>
</g>
<defs>
<filter id="filter0_ii_1908_6432" x="3.42578" y="6.75" width="334.783" height="47.7" filterUnits="userSpaceOnUse" color-interpolation-filters="sRGB">
<feFlood flood-opacity="0" result="BackgroundImageFix"/>
<feBlend mode="normal" in="SourceGraphic" in2="BackgroundImageFix" result="shape"/>
<feColorMatrix in="SourceAlpha" type="matrix" values="0 0 0 0 0 0 0 0 0 0 0 0 0 0 0 0 0 0 127 0" result="hardAlpha"/>
<feOffset dy="-2"/>
<feComposite in2="hardAlpha" operator="arithmetic" k2="-1" k3="1"/>
<feColorMatrix type="matrix" values="0 0 0 0 0.843137 0 0 0 0 0.827451 0 0 0 0 0.839216 0 0 0 1 0"/>
<feBlend mode="normal" in2="shape" result="effect1_innerShadow_1908_6432"/>
<feColorMatrix in="SourceAlpha" type="matrix" values="0 0 0 0 0 0 0 0 0 0 0 0 0 0 0 0 0 0 127 0" result="hardAlpha"/>
<feOffset dy="-1"/>
<feComposite in2="hardAlpha" operator="arithmetic" k2="-1" k3="1"/>
<feColorMatrix type="matrix" values="0 0 0 0 0.843137 0 0 0 0 0.827451 0 0 0 0 0.839216 0 0 0 1 0"/>
<feBlend mode="normal" in2="effect1_innerShadow_1908_6432" result="effect2_innerShadow_1908_6432"/>
</filter>
</defs>
</svg>
