<svg width="175" height="173" viewBox="0 0 175 173" fill="none" xmlns="http://www.w3.org/2000/svg">
<g clip-path="url(#clip0_1908_6436)">
<g filter="url(#filter0_iiii_1908_6436)">
<path d="M3.20781 167.8V115.2C15.4078 111.8 23.6078 101.4 23.6078 72.8V51.4C17.2078 53.8 9.60781 55 3.20781 55.2V3.59999H71.4078V62.8H76.6078V3.59999H122.408V167.8H76.6078V107.2H69.6078C62.8078 144.8 36.8078 166 3.20781 167.8ZM172.808 167.8H127.008V3.59999H172.808V167.8Z" fill="white"/>
</g>
<path d="M3.20781 167.8H1.70781C1.70781 168.212 1.87707 168.605 2.17591 168.889C2.47475 169.172 2.87689 169.32 3.28806 169.298L3.20781 167.8ZM3.20781 115.2L2.80513 113.755C2.1565 113.936 1.70781 114.527 1.70781 115.2H3.20781ZM23.6078 51.4H25.1078C25.1078 50.908 24.8666 50.4473 24.4622 50.1671C24.0578 49.8869 23.5418 49.8228 23.0811 49.9955L23.6078 51.4ZM3.20781 55.2H1.70781C1.70781 55.6059 1.87235 55.9946 2.16385 56.2771C2.45535 56.5596 2.84891 56.7119 3.25466 56.6993L3.20781 55.2ZM3.20781 3.59999V2.09999C2.37939 2.09999 1.70781 2.77156 1.70781 3.59999H3.20781ZM71.4078 3.59999H72.9078C72.9078 2.77156 72.2362 2.09999 71.4078 2.09999V3.59999ZM71.4078 62.8H69.9078C69.9078 63.6284 70.5794 64.3 71.4078 64.3V62.8ZM76.6078 62.8V64.3C77.4362 64.3 78.1078 63.6284 78.1078 62.8H76.6078ZM76.6078 3.59999V2.09999C75.7794 2.09999 75.1078 2.77156 75.1078 3.59999H76.6078ZM122.408 3.59999H123.908C123.908 2.77156 123.236 2.09999 122.408 2.09999V3.59999ZM122.408 167.8V169.3C123.236 169.3 123.908 168.628 123.908 167.8H122.408ZM76.6078 167.8H75.1078C75.1078 168.628 75.7794 169.3 76.6078 169.3V167.8ZM76.6078 107.2H78.1078C78.1078 106.372 77.4362 105.7 76.6078 105.7V107.2ZM69.6078 107.2V105.7C68.8824 105.7 68.2609 106.219 68.1318 106.933L69.6078 107.2ZM172.808 167.8V169.3C173.636 169.3 174.308 168.628 174.308 167.8H172.808ZM127.008 167.8H125.508C125.508 168.628 126.179 169.3 127.008 169.3V167.8ZM127.008 3.59999V2.09999C126.179 2.09999 125.508 2.77156 125.508 3.59999H127.008ZM172.808 3.59999H174.308C174.308 2.77156 173.636 2.09999 172.808 2.09999V3.59999ZM4.70781 167.8V115.2H1.70781V167.8H4.70781ZM3.6105 116.645C10.0591 114.848 15.5126 111.16 19.3018 104.164C23.0479 97.2485 25.1078 87.2099 25.1078 72.8H22.1078C22.1078 86.9901 20.0677 96.4515 16.6639 102.736C13.303 108.94 8.55655 112.152 2.80513 113.755L3.6105 116.645ZM25.1078 72.8V51.4H22.1078V72.8H25.1078ZM23.0811 49.9955C16.8676 52.3256 9.43603 53.5046 3.16096 53.7007L3.25466 56.6993C9.7796 56.4954 17.548 55.2744 24.1345 52.8045L23.0811 49.9955ZM4.70781 55.2V3.59999H1.70781V55.2H4.70781ZM3.20781 5.09999H71.4078V2.09999H3.20781V5.09999ZM69.9078 3.59999V62.8H72.9078V3.59999H69.9078ZM71.4078 64.3H76.6078V61.3H71.4078V64.3ZM78.1078 62.8V3.59999H75.1078V62.8H78.1078ZM76.6078 5.09999H122.408V2.09999H76.6078V5.09999ZM120.908 3.59999V167.8H123.908V3.59999H120.908ZM122.408 166.3H76.6078V169.3H122.408V166.3ZM78.1078 167.8V107.2H75.1078V167.8H78.1078ZM76.6078 105.7H69.6078V108.7H76.6078V105.7ZM68.1318 106.933C64.7839 125.445 56.7305 139.827 45.4635 149.802C34.195 159.778 19.6284 165.418 3.12757 166.302L3.28806 169.298C20.3872 168.382 35.6206 162.522 47.4521 152.048C59.2851 141.573 67.6317 126.555 71.0839 107.467L68.1318 106.933ZM172.808 166.3H127.008V169.3H172.808V166.3ZM128.508 167.8V3.59999H125.508V167.8H128.508ZM127.008 5.09999H172.808V2.09999H127.008V5.09999ZM171.308 3.59999V167.8H174.308V3.59999H171.308Z" fill="#3E3E3F"/>
</g>
<defs>
<filter id="filter0_iiii_1908_6436" x="3.20781" y="3.6001" width="169.6" height="164.2" filterUnits="userSpaceOnUse" color-interpolation-filters="sRGB">
<feFlood flood-opacity="0" result="BackgroundImageFix"/>
<feBlend mode="normal" in="SourceGraphic" in2="BackgroundImageFix" result="shape"/>
<feColorMatrix in="SourceAlpha" type="matrix" values="0 0 0 0 0 0 0 0 0 0 0 0 0 0 0 0 0 0 127 0" result="hardAlpha"/>
<feOffset dy="-4"/>
<feComposite in2="hardAlpha" operator="arithmetic" k2="-1" k3="1"/>
<feColorMatrix type="matrix" values="0 0 0 0 0.843137 0 0 0 0 0.827451 0 0 0 0 0.839216 0 0 0 1 0"/>
<feBlend mode="normal" in2="shape" result="effect1_innerShadow_1908_6436"/>
<feColorMatrix in="SourceAlpha" type="matrix" values="0 0 0 0 0 0 0 0 0 0 0 0 0 0 0 0 0 0 127 0" result="hardAlpha"/>
<feOffset dy="-5"/>
<feComposite in2="hardAlpha" operator="arithmetic" k2="-1" k3="1"/>
<feColorMatrix type="matrix" values="0 0 0 0 0.843137 0 0 0 0 0.827451 0 0 0 0 0.839216 0 0 0 1 0"/>
<feBlend mode="normal" in2="effect1_innerShadow_1908_6436" result="effect2_innerShadow_1908_6436"/>
<feColorMatrix in="SourceAlpha" type="matrix" values="0 0 0 0 0 0 0 0 0 0 0 0 0 0 0 0 0 0 127 0" result="hardAlpha"/>
<feOffset dy="-6"/>
<feComposite in2="hardAlpha" operator="arithmetic" k2="-1" k3="1"/>
<feColorMatrix type="matrix" values="0 0 0 0 0.843137 0 0 0 0 0.827451 0 0 0 0 0.839216 0 0 0 1 0"/>
<feBlend mode="normal" in2="effect2_innerShadow_1908_6436" result="effect3_innerShadow_1908_6436"/>
<feColorMatrix in="SourceAlpha" type="matrix" values="0 0 0 0 0 0 0 0 0 0 0 0 0 0 0 0 0 0 127 0" result="hardAlpha"/>
<feOffset dy="-7"/>
<feComposite in2="hardAlpha" operator="arithmetic" k2="-1" k3="1"/>
<feColorMatrix type="matrix" values="0 0 0 0 0.843137 0 0 0 0 0.827451 0 0 0 0 0.839216 0 0 0 1 0"/>
<feBlend mode="normal" in2="effect3_innerShadow_1908_6436" result="effect4_innerShadow_1908_6436"/>
</filter>
<clipPath id="clip0_1908_6436">
<rect width="175" height="173" fill="white"/>
</clipPath>
</defs>
</svg>
