<svg width="175" height="173" viewBox="0 0 175 173" fill="none" xmlns="http://www.w3.org/2000/svg">
<g clip-path="url(#clip0_1908_6436)">
<g filter="url(#filter0_iiii_1908_6436)">
<path d="M3.20781 123.2V3.59999H105.408V49.4C93.6078 52.4 75.4078 53.6 61.0078 53.6V117.6C74.4078 117.6 92.0078 116 107.408 111.6V159.6C96.8078 165 79.6078 167.6 66.6078 167.6H50.0078C12.0078 167.6 3.20781 153 3.20781 123.2ZM68.6078 109.8V59.8C82.8078 59.2 100.608 57.6 115.008 55.2V3.59999H172.808V167.8H115.008V103.6C102.808 108 82.2078 109.8 68.6078 109.8Z" fill="white"/>
</g>
<path d="M3.20781 3.59999V2.09999C2.37939 2.09999 1.70781 2.77156 1.70781 3.59999H3.20781ZM105.408 3.59999H106.908C106.908 2.77156 106.236 2.09999 105.408 2.09999V3.59999ZM105.408 49.4L105.777 50.8537C106.442 50.6847 106.908 50.0861 106.908 49.4H105.408ZM61.0078 53.6V52.1C60.1794 52.1 59.5078 52.7716 59.5078 53.6H61.0078ZM61.0078 117.6H59.5078C59.5078 118.428 60.1794 119.1 61.0078 119.1V117.6ZM107.408 111.6H108.908C108.908 111.129 108.687 110.686 108.311 110.402C107.935 110.119 107.448 110.028 106.996 110.158L107.408 111.6ZM107.408 159.6L108.089 160.937C108.591 160.681 108.908 160.164 108.908 159.6H107.408ZM68.6078 109.8H67.1078C67.1078 110.628 67.7794 111.3 68.6078 111.3V109.8ZM68.6078 59.8L68.5445 58.3013C67.7414 58.3353 67.1078 58.9962 67.1078 59.8H68.6078ZM115.008 55.2L115.254 56.6796C115.978 56.559 116.508 55.9333 116.508 55.2H115.008ZM115.008 3.59999V2.09999C114.179 2.09999 113.508 2.77156 113.508 3.59999H115.008ZM172.808 3.59999H174.308C174.308 2.77156 173.636 2.09999 172.808 2.09999V3.59999ZM172.808 167.8V169.3C173.636 169.3 174.308 168.628 174.308 167.8H172.808ZM115.008 167.8H113.508C113.508 168.628 114.179 169.3 115.008 169.3V167.8ZM115.008 103.6H116.508C116.508 103.111 116.27 102.653 115.87 102.373C115.47 102.092 114.959 102.023 114.499 102.189L115.008 103.6ZM4.70781 123.2V3.59999H1.70781V123.2H4.70781ZM3.20781 5.09999H105.408V2.09999H3.20781V5.09999ZM103.908 3.59999V49.4H106.908V3.59999H103.908ZM105.038 47.9462C93.4226 50.8994 75.3725 52.1 61.0078 52.1V55.1C75.4431 55.1 93.7931 53.9006 105.777 50.8537L105.038 47.9462ZM59.5078 53.6V117.6H62.5078V53.6H59.5078ZM61.0078 119.1C74.5017 119.1 92.2482 117.491 107.82 113.042L106.996 110.158C91.7674 114.509 74.3139 116.1 61.0078 116.1V119.1ZM105.908 111.6V159.6H108.908V111.6H105.908ZM106.727 158.263C96.4268 163.511 79.4967 166.1 66.6078 166.1V169.1C79.7189 169.1 97.1889 166.489 108.089 160.937L106.727 158.263ZM66.6078 166.1H50.0078V169.1H66.6078V166.1ZM50.0078 166.1C31.1282 166.1 19.9637 162.459 13.4495 155.546C6.91971 148.617 4.70781 138.037 4.70781 123.2H1.70781C1.70781 138.163 3.89591 149.783 11.2662 157.604C18.6519 165.441 30.8874 169.1 50.0078 169.1V166.1ZM70.1078 109.8V59.8H67.1078V109.8H70.1078ZM68.6711 61.2987C82.9168 60.6967 100.78 59.092 115.254 56.6796L114.761 53.7204C100.436 56.108 82.6988 57.7033 68.5445 58.3013L68.6711 61.2987ZM116.508 55.2V3.59999H113.508V55.2H116.508ZM115.008 5.09999H172.808V2.09999H115.008V5.09999ZM171.308 3.59999V167.8H174.308V3.59999H171.308ZM172.808 166.3H115.008V169.3H172.808V166.3ZM116.508 167.8V103.6H113.508V167.8H116.508ZM114.499 102.189C102.55 106.499 82.1614 108.3 68.6078 108.3V111.3C82.2542 111.3 103.066 109.501 115.517 105.011L114.499 102.189Z" fill="#3E3E3F"/>
</g>
<defs>
<filter id="filter0_iiii_1908_6436" x="3.20781" y="3.6001" width="169.6" height="164.2" filterUnits="userSpaceOnUse" color-interpolation-filters="sRGB">
<feFlood flood-opacity="0" result="BackgroundImageFix"/>
<feBlend mode="normal" in="SourceGraphic" in2="BackgroundImageFix" result="shape"/>
<feColorMatrix in="SourceAlpha" type="matrix" values="0 0 0 0 0 0 0 0 0 0 0 0 0 0 0 0 0 0 127 0" result="hardAlpha"/>
<feOffset dy="-4"/>
<feComposite in2="hardAlpha" operator="arithmetic" k2="-1" k3="1"/>
<feColorMatrix type="matrix" values="0 0 0 0 0.843137 0 0 0 0 0.827451 0 0 0 0 0.839216 0 0 0 1 0"/>
<feBlend mode="normal" in2="shape" result="effect1_innerShadow_1908_6436"/>
<feColorMatrix in="SourceAlpha" type="matrix" values="0 0 0 0 0 0 0 0 0 0 0 0 0 0 0 0 0 0 127 0" result="hardAlpha"/>
<feOffset dy="-5"/>
<feComposite in2="hardAlpha" operator="arithmetic" k2="-1" k3="1"/>
<feColorMatrix type="matrix" values="0 0 0 0 0.843137 0 0 0 0 0.827451 0 0 0 0 0.839216 0 0 0 1 0"/>
<feBlend mode="normal" in2="effect1_innerShadow_1908_6436" result="effect2_innerShadow_1908_6436"/>
<feColorMatrix in="SourceAlpha" type="matrix" values="0 0 0 0 0 0 0 0 0 0 0 0 0 0 0 0 0 0 127 0" result="hardAlpha"/>
<feOffset dy="-6"/>
<feComposite in2="hardAlpha" operator="arithmetic" k2="-1" k3="1"/>
<feColorMatrix type="matrix" values="0 0 0 0 0.843137 0 0 0 0 0.827451 0 0 0 0 0.839216 0 0 0 1 0"/>
<feBlend mode="normal" in2="effect2_innerShadow_1908_6436" result="effect3_innerShadow_1908_6436"/>
<feColorMatrix in="SourceAlpha" type="matrix" values="0 0 0 0 0 0 0 0 0 0 0 0 0 0 0 0 0 0 127 0" result="hardAlpha"/>
<feOffset dy="-7"/>
<feComposite in2="hardAlpha" operator="arithmetic" k2="-1" k3="1"/>
<feColorMatrix type="matrix" values="0 0 0 0 0.843137 0 0 0 0 0.827451 0 0 0 0 0.839216 0 0 0 1 0"/>
<feBlend mode="normal" in2="effect3_innerShadow_1908_6436" result="effect4_innerShadow_1908_6436"/>
</filter>
<clipPath id="clip0_1908_6436">
<rect width="175" height="173" fill="white"/>
</clipPath>
</defs>
</svg>
