<svg width="175" height="173" viewBox="0 0 175 173" fill="none" xmlns="http://www.w3.org/2000/svg">
<g clip-path="url(#clip0_1908_6436)">
<g filter="url(#filter0_iiii_1908_6436)">
<path d="M3.20781 59.6V3.59999H172.808V28H63.4078V33H172.808V56.8H63.4078V61.6H172.808V84.8H28.4078C12.4078 84.8 3.20781 75.6 3.20781 59.6ZM3.20781 121.2V90H172.808V121.2H126.808V130.8C110.808 133.6 91.0078 134.2 76.8078 132C70.8078 131 67.0078 127.4 66.8078 121.2H3.20781ZM4.20781 126H61.8078C60.4078 132.4 67.4078 137.2 86.8078 137.4C119.008 137.8 144.008 135.8 172.808 128.6V161.4C146.408 168.4 120.808 170.6 86.8078 170.6C21.6078 170.6 0.207813 156.8 4.20781 126Z" fill="white"/>
</g>
<path d="M3.20781 3.59999V2.09999C2.37939 2.09999 1.70781 2.77156 1.70781 3.59999H3.20781ZM172.808 3.59999H174.308C174.308 2.77156 173.636 2.09999 172.808 2.09999V3.59999ZM172.808 28V29.5C173.636 29.5 174.308 28.8284 174.308 28H172.808ZM63.4078 28V26.5C62.5794 26.5 61.9078 27.1716 61.9078 28H63.4078ZM63.4078 33H61.9078C61.9078 33.8284 62.5794 34.5 63.4078 34.5V33ZM172.808 33H174.308C174.308 32.1716 173.636 31.5 172.808 31.5V33ZM172.808 56.8V58.3C173.636 58.3 174.308 57.6284 174.308 56.8H172.808ZM63.4078 56.8V55.3C62.5794 55.3 61.9078 55.9716 61.9078 56.8H63.4078ZM63.4078 61.6H61.9078C61.9078 62.4284 62.5794 63.1 63.4078 63.1V61.6ZM172.808 61.6H174.308C174.308 60.7716 173.636 60.1 172.808 60.1V61.6ZM172.808 84.8V86.3C173.636 86.3 174.308 85.6284 174.308 84.8H172.808ZM3.20781 121.2H1.70781C1.70781 122.028 2.37939 122.7 3.20781 122.7V121.2ZM3.20781 90V88.5C2.37939 88.5 1.70781 89.1716 1.70781 90H3.20781ZM172.808 90H174.308C174.308 89.1716 173.636 88.5 172.808 88.5V90ZM172.808 121.2V122.7C173.636 122.7 174.308 122.028 174.308 121.2H172.808ZM126.808 121.2V119.7C125.979 119.7 125.308 120.372 125.308 121.2H126.808ZM126.808 130.8L127.066 132.278C127.784 132.152 128.308 131.529 128.308 130.8H126.808ZM76.8078 132L76.5612 133.48C76.5669 133.481 76.5725 133.481 76.5782 133.482L76.8078 132ZM66.8078 121.2L68.307 121.152C68.2809 120.342 67.6174 119.7 66.8078 119.7V121.2ZM4.20781 126V124.5C3.45407 124.5 2.81738 125.059 2.7203 125.807L4.20781 126ZM61.8078 126L63.2732 126.321C63.3702 125.877 63.2611 125.413 62.9763 125.059C62.6916 124.706 62.2619 124.5 61.8078 124.5V126ZM86.8078 137.4L86.8264 135.9L86.8233 135.9L86.8078 137.4ZM172.808 128.6H174.308C174.308 128.138 174.095 127.702 173.731 127.418C173.367 127.133 172.892 127.033 172.444 127.145L172.808 128.6ZM172.808 161.4L173.192 162.85C173.85 162.676 174.308 162.08 174.308 161.4H172.808ZM4.70781 59.6V3.59999H1.70781V59.6H4.70781ZM3.20781 5.09999H172.808V2.09999H3.20781V5.09999ZM171.308 3.59999V28H174.308V3.59999H171.308ZM172.808 26.5H63.4078V29.5H172.808V26.5ZM61.9078 28V33H64.9078V28H61.9078ZM63.4078 34.5H172.808V31.5H63.4078V34.5ZM171.308 33V56.8H174.308V33H171.308ZM172.808 55.3H63.4078V58.3H172.808V55.3ZM61.9078 56.8V61.6H64.9078V56.8H61.9078ZM63.4078 63.1H172.808V60.1H63.4078V63.1ZM171.308 61.6V84.8H174.308V61.6H171.308ZM172.808 83.3H28.4078V86.3H172.808V83.3ZM28.4078 83.3C20.6923 83.3 14.8161 81.0869 10.8685 77.1393C6.92088 73.1917 4.70781 67.3155 4.70781 59.6H1.70781C1.70781 67.8845 4.09474 74.6082 8.74715 79.2607C13.3996 83.9131 20.1233 86.3 28.4078 86.3V83.3ZM4.70781 121.2V90H1.70781V121.2H4.70781ZM3.20781 91.5H172.808V88.5H3.20781V91.5ZM171.308 90V121.2H174.308V90H171.308ZM172.808 119.7H126.808V122.7H172.808V119.7ZM125.308 121.2V130.8H128.308V121.2H125.308ZM126.549 129.322C110.677 132.1 91.045 132.688 77.0375 130.518L76.5782 133.482C90.9706 135.712 110.939 135.1 127.066 132.278L126.549 129.322ZM77.0544 130.52C74.2852 130.059 72.162 129.021 70.7158 127.512C69.2842 126.018 68.397 123.939 68.307 121.152L65.3086 121.248C65.4187 124.661 66.5315 127.482 68.5498 129.588C70.5536 131.679 73.3304 132.941 76.5612 133.48L77.0544 130.52ZM66.8078 119.7H3.20781V122.7H66.8078V119.7ZM4.20781 127.5H61.8078V124.5H4.20781V127.5ZM60.3425 125.679C59.9239 127.593 60.1232 129.477 61.0885 131.19C62.0389 132.876 63.6546 134.262 65.8303 135.363C70.1436 137.547 77.0253 138.799 86.7924 138.9L86.8233 135.9C77.1904 135.801 70.8721 134.553 67.1853 132.687C65.361 131.763 64.2767 130.736 63.7021 129.717C63.1424 128.723 62.9918 127.607 63.2732 126.321L60.3425 125.679ZM86.7892 138.9C119.076 139.301 144.212 137.295 173.172 130.055L172.444 127.145C143.804 134.305 118.939 136.299 86.8264 135.9L86.7892 138.9ZM171.308 128.6V161.4H174.308V128.6H171.308ZM172.423 159.95C146.197 166.904 120.74 169.1 86.8078 169.1V172.1C120.876 172.1 146.618 169.896 173.192 162.85L172.423 159.95ZM86.8078 169.1C54.2264 169.1 32.9253 165.636 20.2923 158.542C14.0276 155.024 9.94278 150.64 7.63191 145.361C5.31167 140.061 4.71807 133.718 5.69532 126.193L2.7203 125.807C1.69756 133.682 2.27896 140.614 4.88372 146.564C7.49785 152.535 12.088 157.376 18.8234 161.158C32.1903 168.664 54.1892 172.1 86.8078 172.1V169.1Z" fill="#3E3E3F"/>
</g>
<defs>
<filter id="filter0_iiii_1908_6436" x="0.207809" y="3.6001" width="172.6" height="167" filterUnits="userSpaceOnUse" color-interpolation-filters="sRGB">
<feFlood flood-opacity="0" result="BackgroundImageFix"/>
<feBlend mode="normal" in="SourceGraphic" in2="BackgroundImageFix" result="shape"/>
<feColorMatrix in="SourceAlpha" type="matrix" values="0 0 0 0 0 0 0 0 0 0 0 0 0 0 0 0 0 0 127 0" result="hardAlpha"/>
<feOffset dy="-4"/>
<feComposite in2="hardAlpha" operator="arithmetic" k2="-1" k3="1"/>
<feColorMatrix type="matrix" values="0 0 0 0 0.843137 0 0 0 0 0.827451 0 0 0 0 0.839216 0 0 0 1 0"/>
<feBlend mode="normal" in2="shape" result="effect1_innerShadow_1908_6436"/>
<feColorMatrix in="SourceAlpha" type="matrix" values="0 0 0 0 0 0 0 0 0 0 0 0 0 0 0 0 0 0 127 0" result="hardAlpha"/>
<feOffset dy="-5"/>
<feComposite in2="hardAlpha" operator="arithmetic" k2="-1" k3="1"/>
<feColorMatrix type="matrix" values="0 0 0 0 0.843137 0 0 0 0 0.827451 0 0 0 0 0.839216 0 0 0 1 0"/>
<feBlend mode="normal" in2="effect1_innerShadow_1908_6436" result="effect2_innerShadow_1908_6436"/>
<feColorMatrix in="SourceAlpha" type="matrix" values="0 0 0 0 0 0 0 0 0 0 0 0 0 0 0 0 0 0 127 0" result="hardAlpha"/>
<feOffset dy="-6"/>
<feComposite in2="hardAlpha" operator="arithmetic" k2="-1" k3="1"/>
<feColorMatrix type="matrix" values="0 0 0 0 0.843137 0 0 0 0 0.827451 0 0 0 0 0.839216 0 0 0 1 0"/>
<feBlend mode="normal" in2="effect2_innerShadow_1908_6436" result="effect3_innerShadow_1908_6436"/>
<feColorMatrix in="SourceAlpha" type="matrix" values="0 0 0 0 0 0 0 0 0 0 0 0 0 0 0 0 0 0 127 0" result="hardAlpha"/>
<feOffset dy="-7"/>
<feComposite in2="hardAlpha" operator="arithmetic" k2="-1" k3="1"/>
<feColorMatrix type="matrix" values="0 0 0 0 0.843137 0 0 0 0 0.827451 0 0 0 0 0.839216 0 0 0 1 0"/>
<feBlend mode="normal" in2="effect3_innerShadow_1908_6436" result="effect4_innerShadow_1908_6436"/>
</filter>
<clipPath id="clip0_1908_6436">
<rect width="175" height="173" fill="white"/>
</clipPath>
</defs>
</svg>
